<?xml version="1.0" encoding="UTF-8"?>
<svg version="1.1" xmlns="http://www.w3.org/2000/svg" width="200" height="200">
<path d="M0 0 C66 0 132 0 200 0 C200 66 200 132 200 200 C134 200 68 200 0 200 C0 134 0 68 0 0 Z " fill="#000000" transform="translate(0,0)"/>
<path d="M0 0 C66 0 132 0 200 0 C200 31.02 200 62.04 200 94 C198.89853832 91.79707663 197.814087 89.58428634 196.80859375 87.3359375 C190.82553645 74.41526105 182.70156264 65.85295452 169.4375 60.75 C166.21092723 59.58018758 164.09243267 58.99711148 160.625 59.10546875 C154.54177817 57.2503483 152.56557532 51.88541128 149.5625 46.5625 C148.92634766 45.48677734 148.29019531 44.41105469 147.63476562 43.30273438 C143 35.37235667 143 35.37235667 143 33 C115.28 33 87.56 33 59 33 C58.34 34.65 57.68 36.3 57 38 C48.89134588 55.77567295 48.89134588 55.77567295 43.06347656 59.10693359 C39.71030868 60.15592805 36.39940667 60.37243529 32.91015625 60.59765625 C24.57510106 61.45530928 17.11037132 66.96747322 11.5234375 73.05859375 C6.50427797 79.45480475 3.1540573 86.17737086 1 94 C0.67 94 0.34 94 0 94 C0 62.98 0 31.96 0 0 Z " fill="#26BC5D" transform="translate(0,0)"/>
<path d="M0 0 C0.33 0 0.66 0 1 0 C1.15855469 0.76183594 1.31710938 1.52367188 1.48046875 2.30859375 C4.29728544 14.77417481 9.42686269 24.47802607 20.1875 31.6875 C25.71108172 35.02716558 32.30724743 38.87040536 38.92724609 39.05322266 C44.21019608 39.23582168 44.21019608 39.23582168 46.51245117 41.46337891 C47.90323787 43.45936041 49.09106334 45.48630438 50.25 47.625 C50.65734375 48.32496094 51.0646875 49.02492187 51.484375 49.74609375 C52.25336856 51.07457941 53.01173614 52.40932627 53.75488281 53.75244141 C54.16577148 54.49413574 54.57666016 55.23583008 55 56 C55.51727661 57.18307236 56.03455322 58.36614471 56.56750488 59.58506775 C57.58489875 61.48497862 57.58489875 61.48497862 59 63 C62.06092862 63.73374678 64.09778234 63.94938931 67.16503906 63.88647461 C68.39486511 63.90263824 68.39486511 63.90263824 69.64953613 63.91912842 C72.35581451 63.94650754 75.05933787 63.92464734 77.765625 63.90234375 C79.64322642 63.91172712 81.5208148 63.92418385 83.39837646 63.93959045 C88.33716985 63.97185629 93.275036 63.96235961 98.21386719 63.94421387 C103.25466108 63.93306705 108.29521607 63.96134857 113.3359375 63.98632812 C123.22412393 64.02951036 133.11177885 64.02858226 143 64 C143.30547256 63.22013229 143.61094513 62.44026459 143.92567444 61.63676453 C145.64060799 57.4277276 148.06953235 53.68090086 150.4375 49.8125 C150.92798828 48.99330078 151.41847656 48.17410156 151.92382812 47.33007812 C152.40142578 46.54697266 152.87902344 45.76386719 153.37109375 44.95703125 C154.0196936 43.88932495 154.0196936 43.88932495 154.68139648 42.80004883 C157.32798131 39.18714938 160.40260162 38.5715462 164.5625 37.6875 C176.26213614 34.85079691 185.83913255 29.43261199 192.3125 19.0625 C195.72514324 12.95127202 198.12425556 7.00595555 199 0 C199.33 0 199.66 0 200 0 C200 31.02 200 62.04 200 94 C134 94 68 94 0 94 C0 62.98 0 31.96 0 0 Z " fill="#26BB5D" transform="translate(0,106)"/>
</svg>
